<svg viewBox="0 0 400 300" fill="none" xmlns="http://www.w3.org/2000/svg"><path opacity=".34" d="M84.434 188.437c9.389.657 17.031 6.348 19.589 13.756 8.501 1.023 14.793 8.549 14.189 17.185l-.079 1.128c-.623 8.912-8.352 15.631-17.264 15.007l-39.8-2.783c-8.911-.623-15.63-8.352-15.007-17.263l.08-1.128c.616-8.82 8.193-15.492 16.988-15.024 3.57-6.97 11.924-11.534 21.304-10.878Z" fill="url(#a)"/><path opacity=".34" d="M152.17 139.157c6.728.707 12.008 5.119 13.274 10.537 5.615.954 9.595 6.123 8.992 11.867-.629 5.978-5.984 10.315-11.962 9.686l-27.421-2.882c-5.978-.628-10.315-5.984-9.686-11.961.617-5.87 5.79-10.157 11.636-9.716 2.37-5.027 8.447-8.237 15.167-7.531Z" fill="url(#b)"/><path opacity=".34" d="M269.417 110.722c7.218.379 13.105 4.564 14.736 9.951 5.28.987 9.144 5.755 8.855 11.266-.314 6.003-5.436 10.614-11.438 10.299l-31.054-1.627c-6.002-.315-10.613-5.436-10.299-11.438.315-6.003 5.436-10.614 11.439-10.299l2.105.11c2.221-5.136 8.481-8.638 15.656-8.262Z" fill="url(#c)"/><path opacity=".302" d="M306.295 190.757c11.065.773 20.143 7.243 23.56 15.778l2.034.143c10.867.76 19.061 10.185 18.301 21.053l-.136 1.954c-.76 10.868-10.186 19.061-21.053 18.302l-51.174-3.579c-10.867-.76-19.061-10.186-18.301-21.053l.136-1.955c.76-10.867 10.186-19.061 21.053-18.301l.054.003c4.571-7.976 14.462-13.119 25.526-12.345Z" fill="url(#d)"/><path d="M150.268 122.5c-1.225 6.739-1.39 12.398-.495 16.975 1.342 6.866 8.458 15.338 15.179 22.231 6.721 6.893 15.245 12.985 15.245 14.531 0 1.545-12.257 10.487-19.672 19.016-7.414 8.529-12.025 15.136-12.025 22.267 0 4.754.769 8.876 2.308 12.365h74.673c1.777-2.708 2.487-6.83 2.131-12.365-.534-8.302-6.027-17.231-14.915-26.168-8.888-8.938-16.311-12.931-16.311-15.115 0-2.185 11.496-10.629 17.062-16.864 5.565-6.235 13.767-15.062 14.164-24.549.265-6.324-.23-10.432-1.484-12.324h-75.86Z" fill="url(#e)"/><path d="M232.599 108.365h-87.225a3.525 3.525 0 0 0-3.524 3.525v7.048a3.524 3.524 0 0 0 3.524 3.524h87.225a3.524 3.524 0 0 0 3.524-3.524v-7.048a3.525 3.525 0 0 0-3.524-3.525Z" fill="url(#f)"/><path d="M162.521 158.965c10.972 3.33 19.074 4.994 24.304 4.994 5.23 0 14.104-1.664 26.621-4.994-.471.702-2.532 2.795-6.184 6.279-5.477 5.227-8.139 7.13-10.697 9.918-2.557 2.788-4.185 3.287-4.369 6.506-.097 1.704-1.917 16.884-1.917 25.635 0 5.834 3.251 10.524 9.751 14.07l-26.693-.41c8.583-2.842 12.875-7.396 12.875-13.66 0-9.397-1.183-24.08-1.337-25.635-.292-2.935-1.438-3.417-4.236-5.917-1.447-1.293-5.191-4.209-9.458-8.273-1.689-1.608-4.576-4.446-8.66-8.513Z" fill="url(#g)"/><path d="M232.599 229.07h-87.225a3.524 3.524 0 0 0-3.524 3.524v7.049a3.524 3.524 0 0 0 3.524 3.524h87.225a3.524 3.524 0 0 0 3.524-3.524v-7.049a3.524 3.524 0 0 0-3.524-3.524Z" fill="url(#h)"/><path d="m190.672 126.905-.603 1.026 1.513.797.772-1.658-1.682-.165ZM194.012 124.877l-.528.957 1.548.862.772-1.658-1.792-.161Z" fill="#FFB8A3"/><path fill-rule="evenodd" clip-rule="evenodd" d="M192.078 128.385a.2.2 0 0 1 .12.033c.565.436.993.911 1.302 1.14.509.378.953.766 1.282.985.329.219.948.525 1.214.821a.841.841 0 0 1 .216.767c-.021.11-.007.312-.105.57-.038.099-.114.194-.198.178-1.553-.293-3.109-.908-3.981-1.254-.861-.342-2.167-.828-3.301-1.27-.117-.045-.16-.204-.111-.338.289-.778.448-1.194.63-1.482.173-.275.336-.623.677-.93.058-.051.138-.104.189-.048l.417.464c.253.28.736.379.944.409.139.019.374.004.705-.045ZM195.611 126.058a.178.178 0 0 1 .106.033c.494.409.862.848 1.132 1.064.445.354.831.716 1.119.923.288.206.834.5 1.063.774.23.273.206.535.17.694-.023.098-.016.28-.113.508-.037.088-.107.171-.183.154-1.383-.312-2.759-.911-3.53-1.249-.761-.334-1.918-.811-2.921-1.242-.103-.045-.137-.189-.088-.307.283-.689.439-1.057.611-1.309.164-.242.321-.548.637-.813.053-.044.126-.089.17-.037l.36.429c.217.259.648.363.833.396.124.022.335.016.634-.018Z" fill="#3E3E6E"/><path d="M197.787 102.71c2.434.857 4.423 1.736 5.968 2.635 2.317 1.349 4.118 3.739 3.489 5.649-.63 1.91-4.017 6.15-6.322 8.984a107.252 107.252 0 0 1-4.991 5.683.44.44 0 0 1-.458.117l-1.6-.522a321.334 321.334 0 0 1 3.418-5.278c2.86-4.303 4.764-7.209 4.412-8.418-.358-1.231-2.367-2.582-5.41-4.906-.924-.706-2.592-1.95-5.005-3.731l6.499-.213Z" fill="#5353B8"/><path d="M181.531 105.541c1.427 2.688 2.969 4.383 4.626 5.085 2.485 1.053 8.018.497 8.359 2.661.34 2.164-.341 5.613-2.165 9.506-1.09 2.327-1.797 3.801-2.121 4.424a.176.176 0 0 0 .1.248l1.649.56a.176.176 0 0 0 .204-.07l8.078-12.262c1.577-2.72 2.15-4.564 1.719-5.535-.488-1.1-1.719-2.318-4.1-3.872-1.816-1.186-4.475-2.481-5.529-2.923-2.599-1.089-7.472-1.768-7.472-1.756 0 .008-1.116 1.32-3.348 3.934Z" fill="#7474C3"/><path fill-rule="evenodd" clip-rule="evenodd" d="M219.736 66.903c-1.055-2.352-3.216-1.355-3.685-.326-.469 1.03.022 1.863-.672 2.352-.695.49-6.17 4.5-8.867 5.225-1.798.483-6.35 1.036-13.654 1.66-.305-1.376.044-2.064 1.046-2.064 1.575 0 2.11-2.3 1.964-4.375-.298-4.22-.794-5.248-2.777-5.248s-4.072.098-4.452 2.45c-.38 2.352-.492 3.757 0 5.37.492 1.612.492 2.6 0 3.037-.492.439-4.65 1.535-6.153 3.08-1.503 1.544-4.366 5.399-5.173 8.818-.808 3.42-2.123 8.076-3.151 11.476-1.028 3.4-1.688 7.227-2.542 7.821-.854.593-3.853.112-5.278 1.181-1.425 1.069-1.541 2.436-.194 2.436h3.599c-.839.959-.973 1.439-.403 1.439.857 0 2.553-.761 3.579-1.97.598-.704.697-.843.968-1.372.271-.529.101-.811.379-1.602.403-1.146 2.319-4.076 4.399-8.383.345-.713.803-1.77 1.373-3.17.279 7.371.659 10.966 1.141 10.784.724-.272 2.704-3.06 7.456-2.912 4.752.149 5.17 1.377 7.977.398 2.808-.979 1.776-1.726 1.086-3.188-.69-1.462-2.014-4.656-2.014-10.62v-7.598c3.509.229 6.101-.053 7.776-.847 2.513-1.19 9.075-5.733 10.495-7.005.946-.848 1.981-2.159 3.103-3.933 2.487-.374 3.378-1.345 2.674-2.913Z" fill="url(#i)"/><path fill-rule="evenodd" clip-rule="evenodd" d="M186.499 75.787c-2.581.863-4.642 2.306-6.181 4.33-2.309 3.035-3.422 4.476-3.258 5.52.164 1.045 3.258 2.409 3.258 2.764 0 .356-.735 5.584-.735 9.354 0 3.77 1.05 8.017 1.578 8.017s2.103-3.038 7.742-2.748c5.638.29 6.492 1.059 8.095.294 1.603-.765 2.144-1.397 1.243-3.034-.902-1.637-2.521-4.428-2.521-10.786 0-4.238.2-6.693.599-7.363 2.617.05 4.109-.003 4.478-.16.553-.234-.821-6.974-1.211-7.202-.389-.227-2.51.228-3.866.228-.903 0-1.85.262-2.839.786.575 1.193.715 2.228.417 3.106-.297.878-1.208 1.156-2.733.833-1.356-.252-2.339-.742-2.949-1.47a4.897 4.897 0 0 1-1.117-2.469Z" fill="#5B5BEA"/><path fill-rule="evenodd" clip-rule="evenodd" d="M188.519 73.06c-.337-2.614-2.011-5.856-1.611-6.97.268-.743.804-1.17 1.61-1.278.577-1.468 1.959-1.982 4.146-1.54.488.098 1.108.654 1.616.671.909.03 1.215-.019 1.824.098.802.154 1.043.494 1.116.93.128.778-.057 1.565-1.116 2.129-.952.507-1.816-.084-2.476.071-.442.104-1.172 1.139-2.187 3.105l-.059-.532c-.192-1.07-.588-1.515-1.188-1.333-.599.182-.793.617-.584 1.307.143 1.305.157 2.138.042 2.498-.115.36-.493.642-1.133.844Z" fill="#353564"/><path d="m104.846 163.872 27.885 13.961-5.655 7.639-22.23-21.6Z" fill="#DB9710"/><path d="m104.846 163.872 22.227 21.598 1.751-8.949-23.978-12.649Z" fill="url(#j)"/><path d="m104.846 163.872 13.669 10.646 10.304 2.001-23.973-12.647Z" fill="url(#k)"/><path d="m108.65 165.773 32.347 12.263-8.263-.203-24.084-12.06Z" fill="#FFD580"/><path opacity=".398" d="M218.105 64.5c17.037 2.666 31.416 6.157 43.136 10.472 43.474 16.008 54.252 41.817 54.252 58.216-1.985 23.98-12.468 35.31-22.948 41.637-16.682 10.071-35.971 5.058-40.742 0-7.768-8.236 6.686-20.775 21.006-11.415s-25.167 42.345-66.407 36.504c-27.493-3.894-52.294-11.161-74.402-21.802" stroke="url(#l)" stroke-width=".881" stroke-linecap="round" stroke-dasharray="2.64 2.64"/><path d="M184.792 217.503c16.894 0 35.501 3.169 42.511 6.726-.312 1.909-.847 3.521-1.607 4.835-.384.037-.773.056-1.158.056l-73.83-.001h-.153a25.794 25.794 0 0 1-1.435-4.698c8.128-3.614 18.477-6.918 35.672-6.918Z" fill="url(#m)"/><defs><linearGradient id="a" x1="84.165" y1="188.419" x2="80.969" y2="234.122" gradientUnits="userSpaceOnUse"><stop stop-color="#DCDCE4"/><stop offset="1" stop-color="#DEDEE6" stop-opacity="0"/></linearGradient><linearGradient id="b" x1="151.987" y1="139.138" x2="148.764" y2="169.806" gradientUnits="userSpaceOnUse"><stop stop-color="#DCDCE4"/><stop offset="1" stop-color="#DEDEE6" stop-opacity="0"/></linearGradient><linearGradient id="c" x1="267.657" y1="110.63" x2="266.043" y2="141.425" gradientUnits="userSpaceOnUse"><stop stop-color="#DCDCE4"/><stop offset="1" stop-color="#DEDEE6" stop-opacity="0"/></linearGradient><linearGradient id="d" x1="307.286" y1="190.826" x2="303.453" y2="245.63" gradientUnits="userSpaceOnUse"><stop stop-color="#DCDCE4"/><stop offset="1" stop-color="#DEDEE6" stop-opacity="0"/></linearGradient><linearGradient id="e" x1="188.101" y1="125.494" x2="188.101" y2="227.634" gradientUnits="userSpaceOnUse"><stop stop-color="#ECECF3"/><stop offset=".512" stop-color="#fff"/><stop offset="1" stop-color="#F4F4F7"/></linearGradient><linearGradient id="f" x1="194.917" y1="122.462" x2="194.917" y2="110.387" gradientUnits="userSpaceOnUse"><stop stop-color="#CBCBD6"/><stop offset="1" stop-color="#F8F8FC"/></linearGradient><linearGradient id="g" x1="187.983" y1="160.584" x2="187.983" y2="226.095" gradientUnits="userSpaceOnUse"><stop stop-color="#D0D0DA"/><stop offset="1" stop-color="#F8F8FA" stop-opacity="0"/></linearGradient><linearGradient id="h" x1="191.798" y1="243.167" x2="191.798" y2="230.358" gradientUnits="userSpaceOnUse"><stop stop-color="#CBCBD7"/><stop offset="1" stop-color="#F8F8FB"/></linearGradient><linearGradient id="i" x1="193.635" y1="73.516" x2="192.858" y2="86.156" gradientUnits="userSpaceOnUse"><stop stop-color="#FFD2C4"/><stop offset="1" stop-color="#FFB8A3"/></linearGradient><linearGradient id="j" x1="105.856" y1="166.38" x2="125.579" y2="184.264" gradientUnits="userSpaceOnUse"><stop stop-color="#FFC552"/><stop offset="1" stop-color="#F5B32F"/></linearGradient><linearGradient id="k" x1="107.908" y1="168.906" x2="120.594" y2="176.714" gradientUnits="userSpaceOnUse"><stop stop-color="#FED686"/><stop offset="1" stop-color="#FFD786"/></linearGradient><linearGradient id="l" x1="223.747" y1="68.359" x2="223.747" y2="196.58" gradientUnits="userSpaceOnUse"><stop stop-color="#FFD685" stop-opacity=".039"/><stop offset="1" stop-color="#DEAA43"/></linearGradient><linearGradient id="m" x1="188.211" y1="217.503" x2="188.211" y2="228.77" gradientUnits="userSpaceOnUse"><stop stop-color="#EFEFF3"/><stop offset="1" stop-color="#CBCBD6"/></linearGradient></defs></svg>